<svg version="1.0" xmlns="http://www.w3.org/2000/svg" width="401.000000pt" height="377.000000pt" viewBox="0 0 401.000000 377.000000" preserveAspectRatio="xMidYMid meet" transform="rotate(180)">

<g transform="translate(0.000000,377.000000) scale(0.100000,-0.100000)" fill="#000000" stroke="none">
<path d="M2885 3407 c-52 -29 -85 -79 -85 -129 0 -42 14 -78 31 -78 6 0 3 10
-5 22 -48 68 24 168 130 184 81 12 171 -39 229 -131 l35 -54 -20 -43 c-11 -24
-20 -56 -20 -73 0 -39 34 -113 55 -122 13 -4 15 -14 10 -42 -18 -99 -120 -238
-207 -282 -21 -11 -38 -22 -38 -24 0 -3 23 6 50 20 99 50 173 136 209 241 18
55 22 59 53 62 18 2 36 7 40 10 4 4 -11 6 -34 4 l-41 -4 6 43 c3 24 -1 80 -8
124 -8 44 -15 81 -15 82 -1 11 68 33 105 33 160 0 248 -183 168 -352 -72 -152
-236 -252 -504 -308 -91 -19 -92 -20 -29 -15 198 16 402 103 504 215 140 155
120 388 -40 466 -47 23 -63 26 -116 21 -33 -3 -65 -10 -71 -16 -20 -20 -33
-12 -65 38 -57 87 -134 131 -229 131 -41 0 -69 -7 -98 -23z m365 -316 c9 -53
9 -76 1 -84 -14 -14 -38 17 -47 61 -7 38 13 119 26 106 5 -5 14 -42 20 -83z"></path>
<path d="M2352 3293 c-63 -22 -101 -66 -149 -172 -50 -108 -32 -103 34 11 25
43 60 90 77 103 41 31 108 55 155 55 27 0 32 3 21 10 -22 14 -88 11 -138 -7z"></path>
<path d="M2907 3254 c-10 -10 -9 -42 2 -48 18 -11 42 6 39 28 -3 21 -28 33
-41 20z"></path>
<path d="M1171 3168 c-42 -44 -37 -148 11 -247 l23 -46 11 90 c16 116 17 181
4 206 -14 25 -25 24 -49 -3z"></path>
<path d="M1857 3155 c-68 -24 -128 -99 -142 -177 -4 -21 -9 -38 -10 -38 -2 0
-27 16 -56 35 -62 41 -100 50 -175 42 -100 -10 -189 -85 -215 -180 -10 -38 -5
-79 16 -130 6 -15 4 -16 -20 -7 -74 28 -166 -6 -227 -85 -71 -94 -76 -191 -15
-292 21 -33 37 -63 37 -66 0 -2 -17 -7 -38 -10 -50 -8 -127 -59 -152 -99 -66
-108 -42 -201 72 -277 73 -48 91 -49 23 -1 -97 68 -127 127 -104 207 16 59 71
115 134 137 84 28 90 25 134 -61 44 -85 56 -81 16 5 -14 30 -25 59 -25 64 0 7
20 8 55 4 167 -19 265 -140 265 -326 0 -96 -55 -310 -79 -310 -4 0 -17 24 -29
53 -23 54 -106 185 -188 296 -26 36 -58 90 -71 120 -19 44 -22 48 -17 21 9
-47 24 -75 110 -205 71 -109 139 -235 165 -307 12 -34 11 -39 -14 -77 -41 -62
-90 -106 -152 -136 -48 -24 -64 -27 -116 -22 -94 8 -157 65 -166 150 -10 82
50 147 134 147 57 0 88 -16 109 -56 10 -18 20 -32 22 -30 10 10 -32 67 -63 86
-92 57 -225 -24 -225 -135 0 -62 37 -124 95 -160 42 -26 58 -30 114 -29 92 1
165 37 233 115 50 56 53 58 61 37 5 -13 11 -62 14 -109 11 -160 -43 -316 -144
-417 -111 -111 -255 -136 -299 -51 -27 54 -13 118 36 156 8 7 10 13 4 13 -5 0
-23 -14 -40 -31 -25 -26 -29 -38 -29 -84 0 -46 4 -58 29 -84 58 -61 126 -63
228 -9 192 102 290 364 232 619 l-16 71 30 71 c47 113 66 202 66 302 -1 119
-28 190 -98 260 -59 59 -116 83 -217 92 l-67 6 -36 60 c-19 33 -38 80 -42 103
-13 86 49 198 130 235 101 46 196 -5 196 -106 0 -61 -62 -106 -100 -72 -12 10
-12 9 -1 -5 20 -27 59 -22 92 11 31 31 39 84 20 133 -9 23 -8 24 51 23 53 0
62 3 84 28 23 28 33 81 15 91 -4 3 -6 -6 -3 -19 17 -89 -128 -114 -179 -31
-23 37 -25 115 -5 154 35 67 128 121 207 122 46 0 155 -45 176 -73 5 -7 15
-47 21 -90 20 -131 83 -221 191 -271 40 -18 64 -21 171 -20 119 0 130 2 230
38 140 51 135 50 223 32 202 -42 393 9 523 138 123 124 149 258 62 331 -23 19
-41 25 -80 25 -44 0 -54 -4 -84 -34 -19 -19 -34 -40 -34 -47 0 -8 8 -2 18 13
17 29 67 58 99 58 32 0 84 -39 99 -75 37 -90 -52 -236 -196 -322 -44 -27 -150
-59 -221 -68 -50 -6 -199 8 -220 21 -5 3 10 20 33 37 113 86 166 231 122 335
-52 126 -198 167 -283 80 -61 -62 -63 -155 -5 -209 l26 -24 -26 39 c-62 93 -4
216 102 218 136 2 214 -145 149 -284 -28 -60 -72 -108 -135 -149 -41 -26 -46
-27 -81 -14 -68 24 -195 92 -303 163 -116 77 -150 96 -188 106 -14 4 2 -8 35
-26 33 -19 98 -62 144 -96 93 -70 196 -132 259 -157 23 -10 39 -21 37 -26 -3
-4 -49 -23 -103 -40 -84 -28 -111 -32 -202 -33 -121 0 -169 14 -236 69 -52 43
-91 121 -100 201 -6 47 -5 56 7 51 155 -67 203 -78 89 -20 -92 47 -95 49 -93
81 1 18 13 57 27 87 43 95 154 143 235 101 33 -17 84 -73 107 -117 8 -17 18
-28 21 -25 8 7 -50 96 -84 128 -51 49 -113 60 -186 33z"></path>
<path d="M3384 3076 c-8 -21 13 -46 32 -39 20 8 13 47 -9 51 -9 2 -20 -4 -23
-12z"></path>
<path d="M937 3063 c-27 -27 43 -115 135 -170 90 -54 94 -53 51 17 -72 119
-154 186 -186 153z"></path>
<path d="M2490 2956 c0 -28 24 -41 40 -21 16 20 5 45 -20 45 -14 0 -20 -7 -20
-24z"></path>
<path d="M2976 2931 c-10 -16 5 -41 25 -41 14 0 19 7 19 25 0 18 -5 25 -19 25
-11 0 -22 -4 -25 -9z"></path>
<path d="M881 2847 c-47 -16 -62 -43 -37 -63 23 -17 80 -17 196 0 l85 12 -32
17 c-34 18 -137 47 -163 46 -8 0 -30 -5 -49 -12z"></path>
<path d="M1394 2775 c-8 -19 3 -35 26 -35 19 0 34 25 24 41 -8 14 -44 10 -50
-6z"></path>
<path d="M1204 2555 c-8 -20 4 -35 26 -35 23 0 32 13 24 34 -8 20 -43 21 -50
1z"></path>
<path d="M2878 2563 c12 -2 30 -2 40 0 9 3 -1 5 -23 4 -22 0 -30 -2 -17 -4z"></path>
<path d="M872 1761 c-45 -20 -96 -49 -113 -65 -56 -53 -88 -148 -70 -211 7
-28 8 -26 14 22 3 28 17 74 31 102 27 53 59 81 143 126 41 22 102 69 82 64 -2
-1 -41 -18 -87 -38z"></path>
<path d="M1020 1464 c-11 -12 -10 -18 3 -32 16 -15 18 -15 34 0 13 14 14 20 3
32 -7 9 -16 16 -20 16 -4 0 -13 -7 -20 -16z"></path>
<path d="M660 1152 c-86 -47 -124 -169 -83 -264 26 -57 75 -112 129 -144 l44
-26 -17 -31 c-26 -50 -22 -143 8 -197 48 -88 162 -138 274 -120 83 13 142 46
211 114 95 95 154 230 189 430 25 148 15 160 -14 16 -41 -200 -107 -339 -204
-431 -121 -113 -282 -131 -386 -43 -68 59 -90 163 -48 228 15 23 17 23 69 10
29 -8 83 -14 120 -14 53 0 69 -4 78 -17 10 -17 10 -17 8 1 -2 14 8 22 48 35
106 35 207 118 253 209 30 59 26 65 -8 12 -65 -99 -140 -160 -238 -190 l-67
-20 -32 31 c-42 40 -112 50 -178 25 -43 -16 -46 -16 -83 3 -50 25 -108 86
-128 133 -20 49 -19 125 3 168 35 70 129 103 172 60 11 -11 20 -16 20 -12 0
17 -38 43 -71 48 -23 3 -46 -1 -69 -14z m323 -422 l22 -22 -82 5 c-95 6 -115
14 -87 34 29 22 120 12 147 -17z"></path>
<path d="M742 1038 c2 -15 10 -23 23 -23 13 0 21 8 23 23 3 18 -1 22 -23 22
-22 0 -26 -4 -23 -22z"></path>
<path d="M1054 976 c-8 -21 3 -36 27 -36 15 0 20 6 17 22 -4 27 -35 37 -44 14z"></path>
<path d="M906 571 c-11 -18 6 -42 28 -39 29 4 29 42 -1 46 -11 2 -24 -1 -27
-7z"></path>
</g>
</svg>