<?xml version="1.0" standalone="no"?>
<!DOCTYPE svg PUBLIC "-//W3C//DTD SVG 20010904//EN"
 "http://www.w3.org/TR/2001/REC-SVG-20010904/DTD/svg10.dtd">
<svg version="1.0" xmlns="http://www.w3.org/2000/svg"
 width="303.000000pt" height="296.000000pt" viewBox="0 0 303.000000 296.000000"
 preserveAspectRatio="xMidYMid meet">

<g transform="translate(0.000000,296.000000) scale(0.100000,-0.100000)"
fill="#fff" stroke="none">
<path d="M1400 2770 c-6 -12 -17 -60 -24 -108 -7 -48 -25 -116 -40 -152 -15
-36 -42 -104 -59 -151 l-32 -87 43 -46 c59 -64 100 -131 119 -196 l16 -55 23
135 c29 168 29 198 3 349 -28 166 -19 192 16 46 30 -127 38 -254 23 -385 l-8
-65 20 50 c26 66 45 99 92 162 48 64 49 60 -51 243 -63 114 -89 177 -105 253
-7 32 -21 35 -36 7z"/>
<path d="M1789 2410 c-175 -153 -236 -239 -274 -385 -24 -92 -21 -122 15 -140
38 -20 37 -21 50 23 18 56 50 108 128 204 38 48 88 123 111 168 23 44 44 80
46 80 2 0 0 -13 -5 -30 -17 -60 -81 -177 -144 -265 -45 -62 -73 -113 -90 -165
-13 -41 -23 -76 -22 -77 2 -2 16 0 32 3 20 4 37 19 56 50 19 31 41 50 75 66
44 21 52 31 90 108 57 115 73 183 73 310 0 105 -6 150 -20 150 -3 0 -58 -45
-121 -100z"/>
<path d="M964 2385 c-3 -8 13 -51 37 -97 55 -109 67 -156 79 -321 9 -114 15
-146 35 -184 14 -25 25 -56 25 -68 0 -30 34 -72 78 -94 21 -11 50 -33 66 -50
l30 -31 23 22 23 21 -35 38 c-19 21 -37 51 -41 66 -3 16 -19 54 -36 86 -16 32
-47 126 -68 210 -41 163 -67 233 -106 284 -33 43 -30 53 5 19 42 -40 84 -132
126 -275 20 -69 46 -143 57 -166 l20 -41 56 54 55 54 -11 58 c-18 100 -58 165
-167 276 -124 127 -233 187 -251 139z"/>
<path d="M2153 2205 c-29 -8 -68 -21 -88 -29 -54 -23 -144 -86 -156 -110 -10
-17 -9 -19 2 -8 35 33 73 1 91 -76 7 -29 15 -52 18 -52 3 0 21 30 40 66 40 75
83 117 147 145 64 27 76 23 23 -7 -25 -15 -60 -41 -78 -57 -34 -33 -125 -209
-137 -267 -4 -19 -19 -57 -33 -83 -21 -40 -23 -50 -12 -57 21 -13 66 16 146
95 67 66 73 76 119 194 48 124 84 176 155 224 21 14 23 18 10 26 -22 15 -186
12 -247 -4z"/>
<path d="M504 2158 c8 -67 40 -157 81 -226 65 -112 196 -235 264 -248 30 -6
31 -5 31 28 0 21 10 50 24 71 l25 36 -27 20 c-15 10 -79 44 -142 75 -109 53
-169 97 -192 141 -6 11 10 1 36 -22 29 -25 91 -60 164 -92 64 -29 137 -64 162
-78 25 -15 62 -28 85 -29 l40 -1 -3 43 c-5 57 -52 111 -128 148 -49 24 -77 30
-164 36 -142 10 -152 14 -229 105 l-33 40 6 -47z"/>
<path d="M1930 2014 c0 -28 -64 -82 -111 -94 -44 -12 -109 -63 -109 -86 0 -7
9 -15 19 -19 11 -3 33 -21 49 -40 l30 -33 30 31 c17 18 45 57 61 87 17 30 31
47 31 38 0 -31 -47 -125 -84 -165 -21 -24 -36 -51 -36 -65 l0 -25 43 19 c23
11 49 23 57 27 8 5 27 32 43 61 32 62 37 157 11 233 -16 46 -34 63 -34 31z"/>
<path d="M1394 1856 c-59 -26 -91 -95 -73 -158 11 -43 64 -92 88 -82 9 3 43 9
75 13 73 7 99 36 99 105 0 100 -96 162 -189 122z"/>
<path d="M965 1788 c-31 -18 -44 -40 -45 -76 0 -46 16 -71 56 -88 29 -12 39
-12 68 0 19 8 39 23 45 34 43 81 -47 174 -124 130z"/>
<path d="M1627 1783 c-4 -3 -7 -27 -7 -52 0 -28 -8 -59 -20 -79 -11 -18 -20
-35 -20 -37 0 -10 65 -45 83 -45 37 0 85 32 102 67 35 72 -15 153 -94 153 -21
0 -41 -3 -44 -7z"/>
<path d="M2135 1713 c-11 -3 -32 -15 -46 -27 -15 -11 -34 -26 -44 -31 -17 -10
-16 -13 4 -52 11 -23 21 -49 21 -57 0 -18 13 -22 142 -36 136 -14 242 -13 315
6 80 20 104 13 32 -9 -57 -18 -210 -39 -231 -32 -7 2 -68 6 -135 10 l-122 6
-14 -33 c-45 -105 -176 -124 -259 -37 -31 32 -42 38 -63 33 -29 -7 -44 -24
-21 -24 8 0 30 -13 48 -28 22 -19 49 -31 80 -35 27 -4 72 -19 100 -33 51 -26
57 -27 173 -21 292 15 486 111 659 326 15 18 25 35 22 38 -2 2 -26 -7 -53 -21
-113 -57 -208 -55 -365 9 -98 39 -198 59 -243 48z"/>
<path d="M760 1636 c-19 -7 -72 -30 -118 -50 -123 -53 -188 -62 -333 -47 -66
7 -123 11 -125 8 -20 -20 74 -121 153 -166 131 -73 193 -90 355 -98 l126 -6
61 41 c34 22 77 46 97 52 31 11 35 15 29 37 -3 14 -9 38 -12 54 -5 26 -9 29
-47 29 -22 0 -88 -13 -145 -30 -200 -57 -338 -63 -454 -20 -72 27 -70 34 3 15
65 -17 198 -19 272 -4 29 6 108 28 175 50 68 22 142 39 167 39 35 0 48 5 56
20 10 18 8 20 -24 20 -25 0 -46 9 -71 32 -42 37 -109 47 -165 24z"/>
<path d="M1853 1620 c-39 -24 -53 -48 -53 -95 0 -51 23 -89 66 -110 47 -22 94
-13 132 25 99 99 -25 253 -145 180z"/>
<path d="M1105 1586 c-88 -38 -95 -166 -13 -216 51 -31 101 -26 144 13 68 62
51 168 -31 203 -42 17 -61 17 -100 0z"/>
<path d="M1414 1576 c-17 -8 -44 -31 -60 -52 -39 -51 -41 -132 -5 -183 33 -46
100 -75 157 -66 108 16 170 148 111 236 -49 72 -128 97 -203 65z"/>
<path d="M1703 1519 c-47 -14 -43 -33 4 -24 44 8 53 13 53 26 0 11 -14 10 -57
-2z"/>
<path d="M1670 1381 c0 -19 -44 -91 -64 -103 -6 -4 -17 -11 -24 -16 -18 -12
-4 -40 29 -57 75 -39 159 5 159 85 0 52 -13 76 -50 95 -38 20 -50 19 -50 -4z"/>
<path d="M981 1333 c-159 -69 -391 -324 -391 -429 0 -40 3 -40 64 -13 37 16
80 22 194 28 163 9 236 29 332 91 58 37 60 47 5 24 -57 -23 -199 -24 -222 -1
-15 15 -16 22 -5 49 6 17 10 33 8 35 -2 2 -33 -3 -68 -12 -67 -17 -136 -53
-197 -102 -30 -25 -33 -25 -23 -6 32 60 159 137 269 162 42 10 53 18 63 42 12
27 64 80 106 106 18 11 18 12 -2 12 -11 1 -29 8 -40 16 -24 18 -49 18 -93 -2z"/>
<path d="M1288 1323 c6 -2 18 -2 25 0 6 3 1 5 -13 5 -14 0 -19 -2 -12 -5z"/>
<path d="M1810 1295 c0 -34 3 -36 88 -79 48 -24 104 -60 125 -79 20 -19 37
-34 37 -33 0 2 -15 34 -34 73 -46 94 -119 153 -191 153 -22 0 -25 -4 -25 -35z"/>
<path d="M1213 1280 c-32 -13 -57 -57 -56 -98 2 -77 119 -129 144 -64 6 15 19
45 30 66 18 36 18 41 4 63 -25 38 -75 52 -122 33z"/>
<path d="M2030 1270 c-21 -13 30 -49 95 -68 70 -21 163 -66 218 -104 48 -34
24 -30 -64 11 -79 36 -158 61 -194 61 -15 0 -14 -4 4 -34 20 -32 20 -66 0 -66
-22 0 6 -29 49 -49 31 -15 78 -26 142 -32 128 -12 147 -16 208 -50 62 -35 65
-26 21 57 -42 80 -91 138 -163 192 -92 67 -138 85 -229 86 -44 1 -83 -1 -87
-4z"/>
<path d="M1087 1236 c-38 -35 -102 -160 -91 -178 7 -11 154 -5 174 7 6 4 0 17
-17 35 -24 26 -28 27 -47 14 -34 -24 -41 -16 -13 14 20 20 27 39 27 66 0 20 5
46 10 57 16 29 -2 23 -43 -15z"/>
<path d="M1387 1200 c-31 -24 -50 -78 -41 -114 3 -14 22 -40 42 -57 30 -27 41
-30 75 -26 78 11 123 86 91 154 -29 61 -116 83 -167 43z"/>
<path d="M1758 1186 l-38 -33 29 -39 c42 -57 97 -106 176 -157 68 -44 125 -97
159 -147 30 -46 16 -39 -39 19 -31 32 -85 74 -124 95 -93 52 -175 117 -216
174 -25 36 -43 50 -73 58 l-39 10 8 -41 c8 -45 47 -152 74 -206 24 -47 83
-107 129 -131 45 -23 363 -148 377 -148 18 0 9 54 -27 159 -82 240 -132 312
-264 380 -43 23 -82 41 -87 41 -4 -1 -25 -16 -45 -34z"/>
<path d="M1554 1005 c-11 -12 -26 -24 -33 -26 -11 -4 -10 -18 3 -76 26 -116
30 -226 12 -331 -9 -51 -23 -107 -31 -125 -12 -25 -14 -27 -10 -7 3 14 10 70
17 124 12 108 2 227 -29 339 -13 48 -20 58 -42 62 -14 3 -43 14 -64 25 l-38
19 -10 -27 c-43 -112 -36 -221 23 -387 39 -113 42 -127 43 -230 0 -60 -4 -129
-9 -152 -12 -59 6 -56 69 10 116 124 203 335 212 518 5 100 4 108 -19 150 -14
24 -34 65 -43 92 -10 26 -20 47 -24 46 -3 -1 -15 -11 -27 -24z"/>
<path d="M1263 973 c-51 -65 -90 -127 -134 -209 -44 -84 -77 -132 -112 -164
-33 -31 -32 -15 2 28 17 22 60 97 95 168 36 71 74 143 85 159 l20 30 -85 -41
c-47 -23 -87 -44 -90 -46 -2 -2 -10 -40 -19 -83 -20 -106 -60 -188 -128 -262
-73 -77 -73 -87 -3 -80 82 8 213 85 305 178 57 59 62 71 65 171 2 55 10 111
20 137 9 24 14 46 12 48 -2 2 -17 -13 -33 -34z"/>
<path d="M1710 739 c0 -53 5 -72 26 -104 58 -87 139 -153 207 -169 34 -8 35 5
3 47 -25 34 -52 108 -61 169 -5 30 -11 38 -37 47 -17 6 -35 11 -41 11 -14 0 1
-67 29 -129 13 -30 22 -56 20 -58 -10 -10 -55 66 -71 117 -9 30 -19 66 -23 79
-4 13 -17 30 -29 39 l-23 14 0 -63z"/>
</g>
</svg>
